<?xml version="1.0" encoding="UTF-8"?>
<!DOCTYPE svg PUBLIC "-//W3C//DTD SVG 1.1//EN" "http://www.w3.org/Graphics/SVG/1.1/DTD/svg11.dtd">
<!-- Creator: CorelDRAW 2020 (64-Bit) -->
<svg xmlns="http://www.w3.org/2000/svg" xml:space="preserve" width="73.733mm" height="73.733mm" version="1.1" style="shape-rendering:geometricPrecision; text-rendering:geometricPrecision; image-rendering:optimizeQuality; fill-rule:evenodd; clip-rule:evenodd"
viewBox="0 0 7373.3 7373.3"
 xmlns:xlink="http://www.w3.org/1999/xlink"
 xmlns:xodm="http://www.corel.com/coreldraw/odm/2003">
 <defs>
  <style type="text/css">
   <![CDATA[
    .fil0 {fill:#30A453}
   ]]>
  </style>
 </defs>
 <g id="Capa_x0020_1">
  <metadata id="CorelCorpID_0Corel-Layer"/>
  <path class="fil0" d="M3681.83 4.83c2036.08,0 3686.64,1650.56 3686.64,3686.64 0,2036.08 -1650.56,3686.64 -3686.64,3686.64 -2036.08,0 -3686.64,-1650.56 -3686.64,-3686.64 0,-748.14 223.03,-1444.09 605.99,-2025.34 7.28,7.35 13.46,15.95 18.15,25.63 176.05,174.76 368.24,328.43 594.38,433.9 130.26,60.72 262.73,115.03 408.07,137.18 174.33,26.52 348.65,18.43 523.1,20.12 119.46,1.2 233.62,33.14 349.6,54.44 178.06,32.71 354.42,54.51 532.85,-4.27 170.5,-56.21 318.55,-151.86 463.45,-252.3 126.52,-87.67 263.72,-149.62 412.35,-179.12 101.54,-20.14 208.01,-13.92 311.67,-25.26 212.33,-23.25 426.38,-3.64 638.14,-25.08 132.11,-13.36 264.01,-41.02 384.65,-102.59 76.22,-38.92 115.48,-120.45 93.76,-188.17 -15.63,-48.85 -56.66,-72.45 -98.24,-93.04 -150.83,-74.72 -311.11,-95.21 -478.21,-87.96 -180.48,7.77 -357.22,45.07 -536.32,60.05 -202.05,16.93 -404.73,26.18 -607.1,-10 -146.42,-26.17 -285.59,-71.52 -421.23,-130.66 -14.34,-6.25 -28.39,-11.27 -22.31,-28.72 7.64,-21.83 25.55,-13.53 38.88,-6.78 147.11,74.36 305.04,115.05 466.37,138.11 156.19,22.29 313.9,21.59 471.78,5.76 154,-15.47 306.73,-40.62 460.55,-56.69 53.21,-5.55 106.17,-14.41 159.97,-10.64 12.46,0.85 25.21,2.98 36.12,-11.01 -200.64,-140.1 -370.88,-314.75 -552.49,-476.4 -72.2,-64.28 -152.42,-119.63 -233.47,-172.9 -68.42,-44.94 -147.04,-44.51 -223.69,-47.59 -152.28,-6.15 -302.52,12.15 -452.79,38.11 -150.72,26.04 -298.7,63.42 -447.63,96.65 -118.74,26.54 -235.44,62.21 -354.64,87.51 -130.54,27.68 -259.41,62.31 -391.73,82.83 -125.57,19.46 -250.91,39.25 -377.97,34.08 -147.64,-5.97 -295.03,-32.24 -437.27,-114.45l18.31 -15.47 -2.16 -2.21c635.91,-521.37 1449.26,-834.36 2335.75,-834.36zm2257.82 2845.31c-21.69,26.64 -54.39,26.82 -82.86,29.53 -205.25,19.55 -398.82,-22.36 -584.41,-110.81 -159.64,-76.02 -295.1,-187.67 -437.8,-288.57 -177.63,-125.62 -367.17,-231.17 -554.99,-339.79 -64.24,-37.15 -127.53,-75.85 -186.94,-120.37 -8.71,-6.53 -26.81,-11.08 -20.18,-27.59 5.22,-12.91 19.69,-8.43 30.41,-7.94 114.05,5.19 228.11,10.9 342.16,16.02 13.79,0.63 23.46,6.53 33.23,15.56 121.85,112.85 266.17,191.94 413.7,263.49 246.7,119.59 489.06,246.02 717.87,397.65 91.87,60.89 191.56,108.27 289.7,158.08 12.39,6.28 28.86,0.03 40.11,14.74zm334.72 13.8c-167.22,-5.47 -323.96,-54.05 -468.31,-134.27 -201.02,-111.69 -395.5,-234.84 -595.28,-348.76 -99.55,-56.76 -204.86,-103.29 -307.02,-155.5 -111.13,-56.76 -219.15,-118.67 -319.27,-193.68 -10.02,-7.47 -18.52,-15.38 -15.1,-27.05 3.57,-12.21 16.55,-5.79 25.44,-7.02 18.03,-2.44 36.2,-4.34 54.33,-6.28 65.37,-6.95 122.55,-3.42 176.21,50.16 67.84,67.77 159.14,105.41 249.77,133.92 228.91,71.96 439.1,180.44 640.54,308.78 116.87,74.44 240.52,137.66 373.83,175.97 114.02,32.74 231.99,45.26 349.96,17.07 31.33,-7.44 47.06,9.7 64.81,27.94 66.49,68.44 64.48,78.04 -21.42,118.43 -66.14,31.12 -135.54,43.29 -208.49,40.29zm41.45 -236.01c-178.93,17.32 -335.21,-49.92 -485.32,-134.83 -120.08,-67.95 -236.71,-142.07 -355.91,-211.63 -109.36,-63.82 -229.8,-101.46 -348.9,-142.03 -90.63,-30.83 -175.82,-72.22 -252.45,-130.25 -9.21,-6.98 -19.82,-14.71 -17.74,-26.6 2.78,-15.8 18.13,-8.57 28.04,-10.23 130.39,-21.69 257.95,-52.39 374.37,-117.9 82.2,-46.28 153.99,-104.67 195.02,-191.8 14.32,-30.38 27.55,-24.41 48.01,-11.22 129.26,83.36 257.46,168.49 388.34,249.24 270.65,167.04 530.82,349.57 791.45,531.46 64.92,45.29 64,48.68 0.43,96.13 -81.81,61.1 -175.23,92.29 -276.61,99.34 -29.46,2.05 -59.17,0.32 -88.73,0.32zm-2383.61 2565.72c0,53.55 -1.03,107.14 0.14,160.69 3.28,150.27 -8.61,300.2 -11.22,450.38 -1.38,80.94 1.52,162.78 -6.88,243.39 -13.3,127.59 -18.45,255.47 -24.8,383.43 -2.12,42.19 -53.44,92.89 -88.86,92.39 -37.93,-0.56 -89.08,-53.3 -87.56,-97.58 3,-87.13 -11.19,-173.56 -8.79,-260.44 1.17,-42.16 -14.14,-82.63 -9.24,-124.96 1.73,-14.89 -6.88,-24.88 -22.4,-23.82 -18.56,1.27 -11.36,17.19 -10.8,26.21 5.75,96.95 -8.64,193.19 -10.62,289.92 -0.74,37.47 -2.5,76.79 -13.93,114.4 -11.36,37.22 -48.65,75.75 -78.35,75.85 -37.87,0.15 -74.7,-36.64 -84.34,-82.26 -10.94,-51.71 -10.89,-104.43 -16.22,-156.64 -12.14,-119.02 -5.24,-239.12 -23.5,-358.18 -7.08,-46.2 -0.31,-95.53 -0.92,-143.58 -2.65,-207.12 1.9,-414.4 -2.94,-621.45 -2.05,-88.15 -4.07,-176.48 -8,-264.61 -1.03,-23.36 27.15,-52.53 -2.23,-68.3 -18.87,-10.12 -47.06,-1.38 -70.57,-4.74 -80.71,-11.42 -157.39,-42.15 -212.61,-98.8 -106.84,-109.68 -237.72,-185.89 -357.86,-276.82 -84.57,-64.04 -172.76,-123.27 -259.12,-184.93 -8.91,-6.36 -15.58,-18.46 -28.54,-12.81 -14.02,6.11 -6.81,19.86 -6.86,29.7 -0.57,133.89 -2.24,267.83 0.82,401.64 0.85,37.4 15.09,74.83 25.29,111.65 27.27,98.64 55.03,197.14 83.78,295.32 32.19,110.03 69.3,218.76 97.23,329.84 17.03,67.59 40.51,133.38 54.41,201.65 10.4,51.13 -36.3,99.66 -96.05,100.22 -70.53,0.71 -141.06,1.31 -211.57,-0.31 -29.13,-0.68 -40.58,8.39 -39.41,38.51 1.93,49.25 2.12,98.69 0.15,147.94 -4.63,115.74 -7.94,231.66 -18.23,346.99 -3.73,41.83 -8.87,83.78 -5.91,125.19 5.59,77.75 -56.56,128.38 -116.81,144.14 -43.22,11.3 -114.69,-45.11 -130.14,-95.32 -13.76,-44.66 -10.28,-90.97 -13.79,-135.74 -6.33,-80.58 -12.73,-161.65 -12.03,-243.13 0.89,-103.09 -20.85,-205.43 -15.96,-309.07 1.06,-22.68 -12.11,-27.63 -32.26,-27.88 -24.09,-0.24 -17.76,16.2 -18.44,28.97 -5.5,105.02 18.81,208.52 16.33,313.29 -0.49,21.01 13.12,49.71 -12.48,61.65 -26.32,12.19 -52.06,-8.98 -72.19,-21.74 -31.43,-19.96 -51.86,-50.87 -59.44,-91.26 -17.16,-91.27 -38.85,-181.73 -58.96,-272.41 -3.41,-15.32 -14.78,-19.79 -29.03,-16.91 -80.69,16.34 -162.29,7.48 -243.18,5.79 -65.86,-1.41 -95.07,-57.4 -77.4,-119.98 34.13,-120.97 62.32,-243.59 97.52,-364.21 12.14,-41.62 17.61,-85.44 37.2,-125.24 7.05,-14.25 11.56,-36.68 -2.22,-46.31 -16.16,-11.33 -25.53,10.65 -36.83,19.78 -29.45,23.79 -59.41,36.13 -98.88,20.79 -45.26,-17.58 -73.5,-53.28 -75.8,-94.9 -3.71,-66.78 -18.67,-132.19 -19.21,-198.93 -1.02,-126.51 15.85,-250.69 40.15,-375.01 29.85,-152.57 88.48,-291.92 171.31,-421.67 76.19,-119.38 174.31,-218.34 295.77,-291.75 60.18,-36.37 127,-60.85 197.92,-63.64 87.69,-3.42 165.03,31.93 230.86,85.76 95.59,78.18 186.54,162.03 279.27,243.7 119.97,105.69 239.79,211.49 359.58,317.35 51.27,45.31 102.5,90.61 153.28,136.43 17.96,16.23 33.08,38.56 31.15,61.06 -5.79,67.63 46.3,87.6 89.71,109.22 97.06,48.4 187.69,28.79 273.8,-34.33 32.18,-23.56 66.43,-48.57 110.77,-50.16 10.94,-0.38 26.36,-5.15 26.75,-25.08 0.45,-21.63 -16.66,-16.62 -26.08,-19.12 -89.78,-23.75 -150.44,-83.29 -180.37,-166.37 -46.99,-130.53 31.09,-278.27 167.53,-320.22 188.18,-57.85 313.55,95.01 333.59,236.11 9.84,69.22 -72.53,196.79 -143.72,227.68 -25.93,11.26 -49.95,29.26 -81.03,26.32 -10.98,-1.02 -18,7.03 -19.41,18.11 -0.91,7.13 -0.31,14.03 9.35,15.48 78.18,11.71 128.48,76.63 199.04,104 88.48,34.37 163.48,3.98 237.91,-39.22 39.76,-23.08 65.27,-48.12 46,-101.36 -10.68,-29.53 11.47,-58.45 33.98,-80.29 96.8,-93.92 200.09,-180.55 301.97,-268.82 88.87,-77.01 173.5,-158.93 262.86,-235.37 100.12,-85.66 191.73,-181.54 306.88,-249.42 68.19,-40.18 137.97,-50.2 214.49,-36.54 158.4,28.25 268.43,128.51 369.82,242.99 62.72,70.8 115.18,148.34 155.75,233.61 42.15,88.65 75.07,180.19 97.58,276.37 16.97,72.52 29.67,146.22 36.86,219 9.56,96.98 11.54,196.08 -2.47,293.93 -3.95,27.31 -7.9,54.65 -10.3,82.09 -6,67.84 -63.36,126.37 -119.98,116.21 -72.32,-12.95 -107.6,-81.1 -99.13,-153.91 7.37,-63.68 -1.97,-126.82 -4.8,-190.09 -3.14,-70.24 -13.93,-139.91 -30.44,-208.31 -12.81,-53.06 -28.26,-105.51 -43.11,-158.08 -3.07,-10.79 -13.69,-7.06 -21.49,-7.47 -9.59,-0.5 -11.11,6.24 -11.21,13.75 -0.11,9.84 -0.14,19.72 -0.14,29.56 -0.04,167.71 -2.97,335.5 1.05,503.13 2.58,108.44 -28.64,209.59 -50.94,313.1 -12.7,58.98 -22.5,118.6 -34.92,177.63 -15.21,72.27 -32.88,144.03 -47.38,216.41 -17.43,87.18 -40.25,173.12 -55.92,260.81 -8.22,46.04 -16.36,93.92 -38.2,137.7 -20.67,41.41 -58.67,57.18 -97.02,71.82 -17.88,6.85 -32.17,-2.69 -32.2,-26.03 -0.25,-121.68 6.87,-242.89 16.12,-364.21 8.5,-110.41 12.87,-221.22 9.59,-332.14 -0.38,-12.39 -0.53,-22.09 -17.53,-21.06 -14.57,0.88 -29.49,-0.25 -32.81,18.3 -1.73,9.61 -1.13,19.72 -0.63,29.53 7.26,144.43 -17.64,287.34 -19.48,431.63 -1.23,97.11 -2.01,195.57 -15.55,292.16 -11.58,82.81 -1.87,165.42 -8.05,247.76 -4.58,60.78 -24.16,118.18 -83.43,147.08 -82.02,40.04 -154.59,-18.59 -178.19,-95.36 -7.9,-25.65 -9.45,-51.64 -8.43,-78.03 7.94,-204.92 -20.92,-408.59 -19.4,-613.58 0.7,-101.33 -5.54,-203.84 -16.05,-304.88 -9.88,-94.12 -1.63,-187.85 -7.23,-281.52 -17.82,-298.06 -3.18,-596.37 -8.4,-894.54 -0.18,-10.11 6.84,-24.27 -6.46,-29.95 -11.99,-5.15 -22.86,0.5 -34.29,8.78 -158.61,114.81 -314.07,234.57 -478.93,339.66 -57.54,36.66 -64.91,99.14 -113.27,137.23 -89.15,70.14 -177.56,136.18 -298.6,129.86 -31.18,-1.62 -33.37,15.97 -33.23,40.01 0.6,109.88 0.25,219.85 0.25,329.74 -0.11,0 -0.14,0 -0.21,0zm-1950.32 -1561.93c-219.31,-3.52 -367.73,-180.05 -364.26,-368.05 3.7,-200.98 146.01,-359.76 366.52,-364.14 202.8,-4.02 367.97,152.19 371.15,368.3 2.76,187.08 -160.29,366.72 -373.41,363.89zm3211.22 -811.7c207.46,-5.61 372.64,176.63 372.71,368.93 0.1,204.82 -180.2,380.54 -387.92,374.33 -163.37,-4.86 -372.6,-157.26 -356.62,-403.89 10.16,-156.88 169.54,-350.98 371.83,-339.37z"/>
 </g>
</svg>
